<svg width="16" height="16" viewBox="0 0 16 16" fill="none" xmlns="http://www.w3.org/2000/svg">
<path d="M13.7143 1.33334H2.28278C1.75897 1.33334 1.33337 1.76489 1.33337 2.29465V13.7054C1.33337 14.2351 1.75897 14.6667 2.28278 14.6667H13.7143C14.2381 14.6667 14.6667 14.2351 14.6667 13.7054V2.29465C14.6667 1.76489 14.2381 1.33334 13.7143 1.33334ZM5.36314 12.7619H3.38695V6.39882H5.36611V12.7619H5.36314ZM4.37504 5.52977C3.74111 5.52977 3.22921 5.01489 3.22921 4.38394C3.22921 3.75299 3.74111 3.23811 4.37504 3.23811C5.00599 3.23811 5.52087 3.75299 5.52087 4.38394C5.52087 5.01787 5.00897 5.52977 4.37504 5.52977ZM12.7709 12.7619H10.7947V9.66668C10.7947 8.92858 10.7798 7.97918 9.7679 7.97918C8.73814 7.97918 8.5804 8.78275 8.5804 9.61311V12.7619H6.60421V6.39882H8.50004V7.26787H8.52683C8.79171 6.76787 9.43754 6.24108 10.3989 6.24108C12.3989 6.24108 12.7709 7.55953 12.7709 9.27382V12.7619Z" fill="white"/>
</svg>
